<?xml version="1.0" encoding="UTF-8" standalone="no"?>
<!-- Created with Inkscape (http://www.inkscape.org/) -->

<svg
   xmlns:dc="http://purl.org/dc/elements/1.1/"
   xmlns:cc="http://creativecommons.org/ns#"
   xmlns:rdf="http://www.w3.org/1999/02/22-rdf-syntax-ns#"
   xmlns:svg="http://www.w3.org/2000/svg"
   xmlns="http://www.w3.org/2000/svg"
   xmlns:sodipodi="http://sodipodi.sourceforge.net/DTD/sodipodi-0.dtd"
   xmlns:inkscape="http://www.inkscape.org/namespaces/inkscape"
   version="1.1"
   id="svg2"
   xml:space="preserve"
   width="700"
   height="700"
   viewBox="0 0 700 700"
   sodipodi:docname="pix-banco-central-logo.svg"
   inkscape:export-filename="G:\Users\suitedoalex\sites\pix-bc-logo-0.png"
   inkscape:export-xdpi="561.73712"
   inkscape:export-ydpi="561.73712"
   inkscape:version="0.92.4 (5da689c313, 2019-01-14)"><metadata
     id="metadata8"><rdf:RDF><cc:Work
         rdf:about=""><dc:format>image/svg+xml</dc:format><dc:type
           rdf:resource="http://purl.org/dc/dcmitype/StillImage" /><dc:title></dc:title></cc:Work></rdf:RDF></metadata><defs
     id="defs6"><clipPath
       clipPathUnits="userSpaceOnUse"
       id="clipPath18"><path
         d="M 0,1080 H 1920 V 0 H 0 Z"
         id="path16"
         inkscape:connector-curvature="0" /></clipPath><clipPath
       clipPathUnits="userSpaceOnUse"
       id="clipPath26"><path
         d="M 2.31224,1078.65 H 1921.71 V 0.354599 H 2.31224 Z"
         id="path24"
         inkscape:connector-curvature="0" /></clipPath><radialGradient
       fx="0"
       fy="0"
       cx="0"
       cy="0"
       r="1"
       gradientUnits="userSpaceOnUse"
       gradientTransform="matrix(2279.4458,0,0,1280.5419,962.0127,539.50366)"
       spreadMethod="pad"
       id="radialGradient36"><stop
         style="stop-opacity:1;stop-color:#ffffff"
         offset="0"
         id="stop32" /><stop
         style="stop-opacity:1;stop-color:#000000"
         offset="1"
         id="stop34" /></radialGradient><clipPath
       clipPathUnits="userSpaceOnUse"
       id="clipPath58"><path
         d="M 1.52588e-5,1080.19 H 1921.71 V -6.05673 H 1.52588e-5 Z"
         id="path56"
         inkscape:connector-curvature="0" /></clipPath><radialGradient
       fx="0"
       fy="0"
       cx="0"
       cy="0"
       r="1"
       gradientUnits="userSpaceOnUse"
       gradientTransform="matrix(2282.1917,0,0,1289.9785,960.85657,537.06549)"
       spreadMethod="pad"
       id="radialGradient68"><stop
         style="stop-opacity:1;stop-color:#ffffff"
         offset="0"
         id="stop64" /><stop
         style="stop-opacity:1;stop-color:#000000"
         offset="1"
         id="stop66" /></radialGradient><clipPath
       clipPathUnits="userSpaceOnUse"
       id="clipPath90"><path
         d="M 11.7831,1078.21 H 1910.67 V 42.0222 H 11.7831 Z"
         id="path88"
         inkscape:connector-curvature="0" /></clipPath><clipPath
       clipPathUnits="userSpaceOnUse"
       id="clipPath94"><path
         d="M 11.7831,1017.59 H 1879.91 V 42.0222 H 11.7831 Z"
         id="path92"
         inkscape:connector-curvature="0" /></clipPath><clipPath
       clipPathUnits="userSpaceOnUse"
       id="clipPath98"><path
         d="M 121.596,1078.21 H 1910.67 V 117.8 H 121.596 Z"
         id="path96"
         inkscape:connector-curvature="0" /></clipPath><clipPath
       clipPathUnits="userSpaceOnUse"
       id="clipPath866"><path
         d="M 0,1080 H 1920 V 0 H 0 Z"
         id="path864"
         inkscape:connector-curvature="0" /></clipPath><clipPath
       clipPathUnits="userSpaceOnUse"
       id="clipPath886"><path
         d="m 1609.83,82.2588 h 26.48 V 63.5831 h -26.48 z"
         id="path884"
         inkscape:connector-curvature="0" /></clipPath><clipPath
       clipPathUnits="userSpaceOnUse"
       id="clipPath902"><path
         d="m 1600.18,103.19 h 22.86 V 76.7676 h -22.86 z"
         id="path900"
         inkscape:connector-curvature="0" /></clipPath><clipPath
       clipPathUnits="userSpaceOnUse"
       id="clipPath918"><path
         d="m 1618.19,89.9323 h 22.12 V 63.6456 h -22.12 z"
         id="path916"
         inkscape:connector-curvature="0" /></clipPath><clipPath
       clipPathUnits="userSpaceOnUse"
       id="clipPath934"><path
         d="m 1604.2,103.117 h 26.46 V 84.441 h -26.46 z"
         id="path932"
         inkscape:connector-curvature="0" /></clipPath><clipPath
       clipPathUnits="userSpaceOnUse"
       id="clipPath970"><path
         d="M 0,1080 H 1920 V 0 H 0 Z"
         id="path968"
         inkscape:connector-curvature="0" /></clipPath><clipPath
       clipPathUnits="userSpaceOnUse"
       id="clipPath970-8"><path
         d="M 0,1080 H 1920 V 0 H 0 Z"
         id="path968-3"
         inkscape:connector-curvature="0" /></clipPath><clipPath
       clipPathUnits="userSpaceOnUse"
       id="clipPath970-9"><path
         d="M 0,1080 H 1920 V 0 H 0 Z"
         id="path968-7"
         inkscape:connector-curvature="0" /></clipPath></defs><sodipodi:namedview
     pagecolor="#ffffff"
     bordercolor="#666666"
     borderopacity="1"
     objecttolerance="10"
     gridtolerance="10"
     guidetolerance="10"
     inkscape:pageopacity="0"
     inkscape:pageshadow="2"
     inkscape:window-width="1600"
     inkscape:window-height="837"
     id="namedview4"
     showgrid="false"
     inkscape:zoom="0.35923609"
     inkscape:cx="-338.87784"
     inkscape:cy="521.28724"
     inkscape:window-x="-8"
     inkscape:window-y="-8"
     inkscape:window-maximized="1"
     inkscape:current-layer="g10" /><g
     id="g10"
     inkscape:groupmode="layer"
     inkscape:label="pix-banco-central-logo"
     transform="matrix(1.3333333,0,0,-1.3333333,0,700)"><g
       id="g964"
       transform="matrix(0.5829914,0,0,0.5829914,-284.91265,-151.3235)"
       inkscape:export-filename="G:\Users\suitedoalex\sites\pix-bc-logo-4.png"
       inkscape:export-xdpi="76.860626"
       inkscape:export-ydpi="76.860626"><g
         id="g966"
         clip-path="url(#clipPath970-9)"><g
           id="g972"
           transform="translate(881.9583,610.8618)"><path
             d="m 0,0 v 130.853 c 0,24.076 19.518,43.593 43.595,43.593 l 38.634,-0.057 c 24.007,-0.048 43.443,-19.523 43.443,-43.53 v -27.853 c 0,-24.076 -19.518,-43.595 -43.594,-43.595 H 27.484"
             style="fill:none;stroke:#939598;stroke-width:8.05900002;stroke-linecap:round;stroke-linejoin:round;stroke-miterlimit:10;stroke-dasharray:none;stroke-opacity:1"
             id="path974"
             inkscape:connector-curvature="0" /></g><g
           id="g976"
           transform="translate(1018.428,785.3266)"><path
             d="m 0,0 h 16.759 c 9.881,0 17.89,-8.01 17.89,-17.891 v -97.748"
             style="fill:none;stroke:#939598;stroke-width:8.05900002;stroke-linecap:round;stroke-linejoin:round;stroke-miterlimit:10;stroke-dasharray:none;stroke-opacity:1"
             id="path978"
             inkscape:connector-curvature="0" /></g><g
           id="g980"
           transform="translate(1049.4836,800.4702)"><path
             d="m 0,0 -7.6,7.601 c -1.886,1.885 -1.886,4.943 0,6.829 l 7.596,7.595 c 1.888,1.889 4.95,1.889 6.838,0 L 14.43,14.43 c 1.886,-1.886 1.886,-4.944 0,-6.829 L 6.83,0 C 4.944,-1.886 1.886,-1.886 0,0"
             style="fill:#32bcad;fill-opacity:1;fill-rule:nonzero;stroke:none"
             id="path982"
             inkscape:connector-curvature="0" /></g><g
           id="g984"
           transform="translate(1085.2297,785.4135)"><path
             d="m 0,0 h 16.62 c 8.55,0 16.75,-3.396 22.795,-9.442 L 78.29,-48.316 c 5.036,-5.037 13.2,-5.037 18.236,0 l 38.733,38.732 c 6.045,6.045 14.245,9.441 22.795,9.441 h 13.512"
             style="fill:none;stroke:#939598;stroke-width:8.05900002;stroke-linecap:round;stroke-linejoin:round;stroke-miterlimit:10;stroke-dasharray:none;stroke-opacity:1"
             id="path986"
             inkscape:connector-curvature="0" /></g><g
           id="g988"
           transform="translate(1085.2297,670.5434)"><path
             d="m 0,0 h 16.62 c 8.55,0 16.75,3.396 22.795,9.442 L 78.29,48.317 c 5.036,5.036 13.2,5.036 18.236,0 L 135.259,9.585 c 6.045,-6.046 14.245,-9.442 22.795,-9.442 h 13.512"
             style="fill:none;stroke:#939598;stroke-width:8.05900002;stroke-linecap:round;stroke-linejoin:round;stroke-miterlimit:10;stroke-dasharray:none;stroke-opacity:1"
             id="path990"
             inkscape:connector-curvature="0" /></g><g
           id="g992"
           transform="translate(782.8699,645.7084)"><path
             d="m 0,0 c -8.342,0 -16.187,3.248 -22.085,9.144 l -31.89,31.889 c -2.238,2.245 -6.141,2.238 -8.379,0 L -94.36,9.027 c -5.899,-5.895 -13.744,-9.143 -22.086,-9.143 h -6.284 l 40.388,-40.389 c 12.614,-12.613 33.065,-12.613 45.679,0 L 3.842,0 Z"
             style="fill:#32bcad;fill-opacity:1;fill-rule:nonzero;stroke:none"
             id="path994"
             inkscape:connector-curvature="0" /></g><g
           id="g996"
           transform="translate(666.4241,758.5073)"><path
             d="m 0,0 c 8.342,0 16.187,-3.249 22.085,-9.145 l 32.006,-32.011 c 2.305,-2.305 6.069,-2.315 8.38,0.003 L 94.36,-9.261 c 5.899,5.896 13.744,9.144 22.086,9.144 h 3.841 L 79.783,40.387 c -12.614,12.614 -33.065,12.614 -45.679,0 L -6.283,0 Z"
             style="fill:#32bcad;fill-opacity:1;fill-rule:nonzero;stroke:none"
             id="path998"
             inkscape:connector-curvature="0" /></g><g
           id="g1000"
           transform="translate(820.2131,724.8881)"><path
             d="m 0,0 -24.477,24.477 c -0.539,-0.216 -1.122,-0.351 -1.738,-0.351 h -11.128 c -5.754,0 -11.386,-2.333 -15.451,-6.401 l -31.89,-31.89 c -2.983,-2.984 -6.904,-4.478 -10.822,-4.478 -3.921,0 -7.839,1.494 -10.823,4.475 l -32.009,32.009 c -4.066,4.068 -9.697,6.401 -15.451,6.401 h -13.684 c -0.583,0 -1.129,0.138 -1.644,0.332 L -193.691,0 c -12.614,-12.613 -12.614,-33.064 0,-45.679 l 24.573,-24.573 c 0.515,0.194 1.062,0.332 1.645,0.332 h 13.684 c 5.754,0 11.385,2.333 15.451,6.401 l 32.006,32.006 c 5.785,5.78 15.869,5.783 21.648,-0.003 l 31.89,-31.886 c 4.065,-4.069 9.697,-6.402 15.451,-6.402 h 11.128 c 0.617,0 1.199,-0.134 1.739,-0.35 L 0,-45.679 C 12.614,-33.064 12.614,-12.613 0,0"
             style="fill:#32bcad;fill-opacity:1;fill-rule:nonzero;stroke:none"
             id="path1002"
             inkscape:connector-curvature="0" /></g><g
           id="g1004"
           transform="translate(915.1824,621.9838)"><path
             d="m 0,0 c -1.806,0 -3.909,-0.434 -5.988,-0.913 v -7.975 c 1.441,-0.526 3.085,-0.778 4.663,-0.778 3.998,0 5.895,1.348 5.895,4.869 C 4.57,-1.484 3.016,0 0,0 M -7.337,-14.808 V 0.961 h 1.097 l 0.115,-0.687 c 1.851,0.435 4.41,1.006 6.238,1.006 1.487,0 2.903,-0.226 4.091,-1.187 1.372,-1.121 1.806,-2.925 1.806,-4.89 0,-2.058 -0.686,-4.001 -2.559,-5.074 -1.304,-0.731 -3.063,-1.028 -4.64,-1.028 -1.623,0 -3.176,0.253 -4.799,0.731 v -4.64 z"
             style="fill:#939598;fill-opacity:1;fill-rule:nonzero;stroke:none"
             id="path1006"
             inkscape:connector-curvature="0" /></g><g
           id="g1008"
           transform="translate(931.2317,622.0317)"><path
             d="m 0,0 c -4,0 -5.782,-1.258 -5.782,-4.777 0,-3.405 1.76,-4.937 5.782,-4.937 3.976,0 5.759,1.235 5.759,4.755 C 5.759,-1.555 4,0 0,0 M 5.141,-9.714 C 3.816,-10.672 2.034,-10.947 0,-10.947 c -2.079,0 -3.862,0.298 -5.166,1.233 -1.462,1.028 -2.056,2.721 -2.056,4.845 0,2.103 0.594,3.815 2.056,4.869 1.304,0.936 3.087,1.232 5.166,1.232 2.057,0 3.816,-0.296 5.141,-1.232 1.487,-1.054 2.057,-2.766 2.057,-4.845 0,-2.126 -0.594,-3.841 -2.057,-4.869"
             style="fill:#939598;fill-opacity:1;fill-rule:nonzero;stroke:none"
             id="path1010"
             inkscape:connector-curvature="0" /></g><g
           id="g1012"
           transform="translate(955.304,611.4037)"><path
             d="M 0,0 -4.457,9.574 H -4.549 L -8.937,0 h -1.21 L -14.9,11.541 h 1.484 l 3.954,-9.688 h 0.092 l 4.296,9.688 H -3.84 L 0.57,1.853 h 0.093 l 3.862,9.688 H 5.964 L 1.21,0 Z"
             style="fill:#939598;fill-opacity:1;fill-rule:nonzero;stroke:none"
             id="path1014"
             inkscape:connector-curvature="0" /></g><g
           id="g1016"
           transform="translate(969.8879,622.0541)"><path
             d="M 0,0 C -3.702,0 -4.959,-1.645 -5.188,-4.023 H 5.187 C 5.074,-1.396 3.725,0 0,0 m -0.045,-10.97 c -2.218,0 -3.657,0.32 -4.8,1.282 -1.349,1.165 -1.805,2.854 -1.805,4.796 0,1.852 0.617,3.816 2.149,4.937 C -3.222,0.936 -1.645,1.21 0,1.21 1.486,1.21 3.2,1.051 4.616,0.09 6.284,-1.028 6.605,-2.995 6.605,-5.233 H -5.233 c 0.045,-2.377 0.823,-4.481 5.301,-4.481 2.126,0 4.114,0.345 5.966,0.664 v -1.211 C 4.113,-10.605 1.988,-10.97 -0.045,-10.97"
             style="fill:#939598;fill-opacity:1;fill-rule:nonzero;stroke:none"
             id="path1018"
             inkscape:connector-curvature="0" /></g><g
           id="g1020"
           transform="translate(980.3625,611.4037)"><path
             d="M 0,0 V 11.541 H 1.097 L 1.212,10.854 C 3.656,11.472 4.8,11.86 6.947,11.86 H 7.108 V 10.58 H 6.788 C 4.982,10.58 3.886,10.331 1.349,9.667 V 0 Z"
             style="fill:#939598;fill-opacity:1;fill-rule:nonzero;stroke:none"
             id="path1022"
             inkscape:connector-curvature="0" /></g><g
           id="g1024"
           transform="translate(995.301,622.0541)"><path
             d="M 0,0 C -3.702,0 -4.959,-1.645 -5.188,-4.023 H 5.187 C 5.074,-1.396 3.725,0 0,0 m -0.045,-10.97 c -2.218,0 -3.657,0.32 -4.8,1.282 -1.349,1.165 -1.805,2.854 -1.805,4.796 0,1.852 0.617,3.816 2.149,4.937 C -3.222,0.936 -1.645,1.21 0,1.21 1.486,1.21 3.2,1.051 4.616,0.09 6.284,-1.028 6.605,-2.995 6.605,-5.233 H -5.233 c 0.045,-2.377 0.823,-4.481 5.301,-4.481 2.126,0 4.114,0.345 5.966,0.664 v -1.211 C 4.113,-10.605 1.988,-10.97 -0.045,-10.97"
             style="fill:#939598;fill-opacity:1;fill-rule:nonzero;stroke:none"
             id="path1026"
             inkscape:connector-curvature="0" /></g><g
           id="g1028"
           transform="translate(1016.6765,621.2524)"><path
             d="m 0,0 c -1.439,0.527 -3.085,0.779 -4.661,0.779 -4,0 -5.897,-1.35 -5.897,-4.869 0,-3.335 1.554,-4.797 4.57,-4.797 1.806,0 3.909,0.434 5.988,0.891 z m 0.252,-9.849 -0.115,0.687 c -1.85,-0.434 -4.41,-1.006 -6.238,-1.006 -1.485,0 -2.903,0.205 -4.091,1.189 -1.371,1.121 -1.806,2.924 -1.806,4.889 0,2.056 0.686,4.001 2.56,5.052 1.303,0.753 3.062,1.05 4.662,1.05 1.6,0 3.153,-0.275 4.776,-0.731 V 6.56 H 1.349 V -9.849 Z"
             style="fill:#939598;fill-opacity:1;fill-rule:nonzero;stroke:none"
             id="path1030"
             inkscape:connector-curvature="0" /></g><g
           id="g1032"
           transform="translate(1037.7957,621.9838)"><path
             d="m 0,0 c -1.806,0 -3.909,-0.434 -5.988,-0.913 v -7.952 c 1.463,-0.549 3.085,-0.801 4.663,-0.801 3.998,0 5.895,1.348 5.895,4.869 C 4.57,-1.484 3.016,0 0,0 m 3.45,-9.871 c -1.303,-0.731 -3.062,-1.028 -4.639,-1.028 -1.714,0 -3.427,0.297 -5.165,0.869 l -0.068,-0.55 H -7.337 V 5.828 h 1.349 V 0.322 C -4.137,0.731 -1.646,1.28 0.113,1.28 1.6,1.28 3.016,1.054 4.204,0.093 5.576,-1.028 6.01,-2.832 6.01,-4.797 6.01,-6.855 5.323,-8.798 3.45,-9.871"
             style="fill:#939598;fill-opacity:1;fill-rule:nonzero;stroke:none"
             id="path1034"
             inkscape:connector-curvature="0" /></g><g
           id="g1036"
           transform="translate(1045.5945,606.9721)"><path
             d="M 0,0 V 1.255 C 0.663,1.187 1.281,1.14 1.715,1.14 c 1.668,0 2.673,0.482 3.61,2.379 L 5.759,4.432 -0.273,15.973 H 1.281 L 6.446,6.01 h 0.091 l 4.913,9.963 h 1.531 L 6.491,3.015 C 5.303,0.661 4.022,-0.115 1.668,-0.115 1.143,-0.115 0.572,-0.07 0,0"
             style="fill:#939598;fill-opacity:1;fill-rule:nonzero;stroke:none"
             id="path1038"
             inkscape:connector-curvature="0" /></g><g
           id="g1040"
           transform="translate(1077.1594,617.9858)"><path
             d="m 0,0 h -4.479 v -4.046 h 4.501 c 3.085,0 4.25,0.345 4.25,2.034 C 4.272,-0.204 2.674,0 0,0 M -0.823,6.56 H -4.479 V 2.446 H -0.8 c 3.04,0 4.25,0.365 4.25,2.079 0,1.827 -1.531,2.035 -4.273,2.035 M 6.125,-5.486 C 4.479,-6.537 2.491,-6.582 -1.144,-6.582 H -7.976 V 9.072 h 6.673 c 3.131,0 5.05,-0.045 6.65,-1.006 C 6.49,7.38 6.947,6.329 6.947,4.959 6.947,3.314 6.262,2.217 4.479,1.485 V 1.396 C 6.49,0.936 7.793,-0.093 7.793,-2.309 7.793,-3.816 7.244,-4.8 6.125,-5.486"
             style="fill:#939598;fill-opacity:1;fill-rule:nonzero;stroke:none"
             id="path1042"
             inkscape:connector-curvature="0" /></g><g
           id="g1044"
           transform="translate(1098.6228,616.2485)"><path
             d="m 0,0 c -1.349,0.115 -2.719,0.183 -4.159,0.183 -2.354,0 -3.177,-0.48 -3.177,-1.553 0,-1.006 0.686,-1.555 2.49,-1.555 1.509,0 3.315,0.342 4.846,0.687 z m 0.685,-4.845 -0.091,0.687 c -1.965,-0.482 -4.25,-1.006 -6.262,-1.006 -1.234,0 -2.56,0.16 -3.497,0.847 -0.867,0.616 -1.279,1.622 -1.279,2.788 0,1.302 0.572,2.512 1.942,3.129 1.212,0.572 2.834,0.617 4.32,0.617 1.211,0 2.833,-0.068 4.182,-0.16 v 0.207 c 0,1.804 -1.189,2.398 -4.434,2.398 -1.256,0 -2.788,-0.066 -4.25,-0.204 v 2.331 c 1.622,0.135 3.45,0.227 4.959,0.227 2.011,0 4.091,-0.16 5.37,-1.073 C 2.97,5.004 3.222,3.701 3.222,1.989 v -6.834 z"
             style="fill:#939598;fill-opacity:1;fill-rule:nonzero;stroke:none"
             id="path1046"
             inkscape:connector-curvature="0" /></g><g
           id="g1048"
           transform="translate(1116.9124,611.4037)"><path
             d="m 0,0 v 6.378 c 0,2.101 -1.073,2.854 -2.994,2.854 -1.416,0 -3.198,-0.364 -4.707,-0.731 V 0 h -3.222 v 11.541 h 2.628 l 0.113,-0.73 c 2.035,0.523 4.297,1.049 6.172,1.049 1.416,0 2.856,-0.204 3.953,-1.187 C 2.856,9.849 3.2,8.709 3.2,7.062 V 0 Z"
             style="fill:#939598;fill-opacity:1;fill-rule:nonzero;stroke:none"
             id="path1050"
             inkscape:connector-curvature="0" /></g><g
           id="g1052"
           transform="translate(1129.2156,611.0844)"><path
             d="m 0,0 c -1.485,0 -3.109,0.205 -4.297,1.211 -1.416,1.143 -1.828,2.947 -1.828,4.892 0,1.827 0.594,3.816 2.354,4.934 1.439,0.939 3.222,1.143 5.074,1.143 1.325,0 2.628,-0.092 4.067,-0.227 V 9.484 C 4.204,9.597 2.81,9.689 1.691,9.689 c -3.063,0 -4.503,-0.96 -4.503,-3.611 0,-2.491 1.075,-3.564 3.588,-3.564 1.462,0 3.177,0.274 4.846,0.593 V 0.731 C 3.816,0.364 1.851,0 0,0"
             style="fill:#939598;fill-opacity:1;fill-rule:nonzero;stroke:none"
             id="path1054"
             inkscape:connector-curvature="0" /></g><g
           id="g1056"
           transform="translate(1144.3552,620.8442)"><path
             d="m 0,0 c -3.063,0 -4.412,-0.962 -4.412,-3.59 0,-2.628 1.326,-3.749 4.412,-3.749 3.039,0 4.364,0.939 4.364,3.568 C 4.364,-1.144 3.063,0 0,0 M 5.53,-8.549 C 4.113,-9.507 2.263,-9.76 0,-9.76 c -2.309,0 -4.159,0.276 -5.553,1.211 -1.6,1.051 -2.172,2.788 -2.172,4.867 0,2.081 0.572,3.841 2.172,4.892 1.394,0.936 3.244,1.21 5.553,1.21 2.285,0 4.113,-0.274 5.53,-1.21 1.599,-1.051 2.149,-2.811 2.149,-4.867 0,-2.081 -0.572,-3.841 -2.149,-4.892"
             style="fill:#939598;fill-opacity:1;fill-rule:nonzero;stroke:none"
             id="path1058"
             inkscape:connector-curvature="0" /></g><g
           id="g1060"
           transform="translate(1170.637,611.0844)"><path
             d="m 0,0 c -1.941,0 -4.044,0.319 -5.622,1.623 -1.873,1.555 -2.444,3.953 -2.444,6.536 0,2.307 0.731,5.049 3.175,6.65 1.897,1.232 4.251,1.484 6.628,1.484 1.738,0 3.519,-0.114 5.463,-0.274 v -2.811 c -1.669,0.138 -3.725,0.253 -5.325,0.253 -4.457,0 -6.354,-1.692 -6.354,-5.302 0,-3.681 1.76,-5.326 5.051,-5.326 2.147,0 4.547,0.435 6.97,0.938 V 0.983 C 5.119,0.502 2.582,0 0,0"
             style="fill:#939598;fill-opacity:1;fill-rule:nonzero;stroke:none"
             id="path1062"
             inkscape:connector-curvature="0" /></g><g
           id="g1064"
           transform="translate(1187.6472,621.2084)"><path
             d="M 0,0 C -2.674,0 -3.703,-0.962 -3.909,-2.721 H 3.862 C 3.77,-0.847 2.673,0 0,0 m -0.48,-10.124 c -1.897,0 -3.611,0.228 -4.891,1.281 -1.37,1.14 -1.851,2.855 -1.851,4.822 0,1.759 0.572,3.723 2.172,4.867 1.416,1.006 3.222,1.21 5.05,1.21 1.645,0 3.588,-0.182 5.004,-1.165 1.852,-1.303 2.012,-3.315 2.035,-5.691 h -10.97 c 0.069,-1.76 1.006,-2.903 4.25,-2.903 2.012,0 4.251,0.297 6.148,0.595 V -9.37 C 4.25,-9.737 1.828,-10.124 -0.48,-10.124"
             style="fill:#939598;fill-opacity:1;fill-rule:nonzero;stroke:none"
             id="path1066"
             inkscape:connector-curvature="0" /></g><g
           id="g1068"
           transform="translate(1209.0212,611.4037)"><path
             d="m 0,0 v 6.378 c 0,2.101 -1.073,2.854 -2.994,2.854 -1.416,0 -3.198,-0.364 -4.707,-0.731 V 0 h -3.222 v 11.541 h 2.628 l 0.114,-0.73 c 2.034,0.523 4.296,1.049 6.171,1.049 1.416,0 2.856,-0.204 3.953,-1.187 C 2.857,9.849 3.2,8.709 3.2,7.062 V 0 Z"
             style="fill:#939598;fill-opacity:1;fill-rule:nonzero;stroke:none"
             id="path1070"
             inkscape:connector-curvature="0" /></g><g
           id="g1072"
           transform="translate(1221.3933,611.0844)"><path
             d="m 0,0 c -1.554,0 -2.972,0.435 -3.748,1.646 -0.571,0.823 -0.846,1.941 -0.846,3.496 v 4.32 h -2.331 v 2.398 h 2.331 l 0.344,3.497 h 2.856 V 11.86 H 3.153 V 9.462 H -1.394 V 5.758 c 0,-0.891 0.068,-1.645 0.319,-2.194 0.344,-0.776 1.097,-1.073 2.103,-1.073 0.754,0 1.669,0.115 2.307,0.227 V 0.412 C 2.285,0.205 1.073,0 0,0"
             style="fill:#939598;fill-opacity:1;fill-rule:nonzero;stroke:none"
             id="path1074"
             inkscape:connector-curvature="0" /></g><g
           id="g1076"
           transform="translate(1227.6902,611.4037)"><path
             d="m 0,0 v 11.541 h 2.628 l 0.115,-0.73 c 2.126,0.593 3.701,1.049 5.713,1.049 0.091,0 0.229,0 0.411,-0.021 V 9.096 C 8.501,9.118 8.067,9.118 7.748,9.118 6.17,9.118 4.982,8.936 3.222,8.523 V 0 Z"
             style="fill:#939598;fill-opacity:1;fill-rule:nonzero;stroke:none"
             id="path1078"
             inkscape:connector-curvature="0" /></g><g
           id="g1080"
           transform="translate(1248.2717,616.2485)"><path
             d="m 0,0 c -1.349,0.115 -2.719,0.183 -4.16,0.183 -2.353,0 -3.177,-0.48 -3.177,-1.553 0,-1.006 0.687,-1.555 2.491,-1.555 1.509,0 3.315,0.342 4.846,0.687 z m 0.685,-4.845 -0.091,0.687 c -1.966,-0.482 -4.251,-1.006 -6.262,-1.006 -1.234,0 -2.56,0.16 -3.497,0.847 -0.867,0.616 -1.279,1.622 -1.279,2.788 0,1.302 0.571,2.512 1.942,3.129 1.211,0.572 2.834,0.617 4.32,0.617 1.21,0 2.833,-0.068 4.182,-0.16 v 0.207 c 0,1.804 -1.189,2.398 -4.434,2.398 -1.257,0 -2.788,-0.066 -4.251,-0.204 v 2.331 c 1.623,0.135 3.451,0.227 4.96,0.227 2.01,0 4.091,-0.16 5.37,-1.073 C 2.97,5.004 3.222,3.701 3.222,1.989 v -6.834 z"
             style="fill:#939598;fill-opacity:1;fill-rule:nonzero;stroke:none"
             id="path1082"
             inkscape:connector-curvature="0" /></g><path
           d="m 1255.638,627.812 h 3.222 v -16.408 h -3.222 z"
           style="fill:#939598;fill-opacity:1;fill-rule:nonzero;stroke:none"
           id="path1084"
           inkscape:connector-curvature="0" /></g></g></g></svg>