
<svg version="1.1" id="Layer_1" xmlns="http://www.w3.org/2000/svg" xmlns:xlink="http://www.w3.org/1999/xlink" x="0px" y="0px"
	 viewBox="-314 371.1 169.7 58.9" enable-background="new -314 371.1 169.7 58.9" xml:space="preserve">
<g>
	<path fill="#010101" stroke="#FFFFFF" stroke-width="1.1758" stroke-miterlimit="10" d="M-144.9,421.1c0,5.1-3.8,8.3-8.9,8.3
		h-150.4c-5.1,0-9.3-4.2-9.3-9.3V381c0-5.1,4.1-9.3,9.3-9.3h150.4c5.1,0,8.9,4.1,8.9,9.3V421.1z"/>
	<path fill="#010101" stroke="#FFFFFF" stroke-width="1.1758" stroke-miterlimit="10" d="M-144.9,421.1c0,5.1-3.8,8.3-8.9,8.3
		h-150.4c-5.1,0-9.3-4.2-9.3-9.3V381c0-5.1,4.1-9.3,9.3-9.3h150.4c5.1,0,8.9,4.1,8.9,9.3V421.1z"/>
	<g>
		<g>
			<path fill="#FFFFFF" d="M-198.3,413.1l-1.3,1.2c-0.3,0.2-0.6,0.3-0.9,0.5c-0.9,0.4-1.8,0.5-2.6,0.5c-0.8,0-2.2-0.1-3.5-1
				c-1.9-1.3-2.7-3.6-2.7-5.6c0-4.1,3.3-6.1,6.1-6.1c1,0,1.9,0.2,2.7,0.7c1.3,0.9,1.7,2,1.9,2.6l-6.2,2.5l-2,0.2
				c0.7,3.4,2.9,5.3,5.4,5.3C-200.1,413.9-199.2,413.5-198.3,413.1C-198.3,413.1-198.1,413-198.3,413.1z M-202,406.4
				c0.5-0.2,0.8-0.3,0.8-0.7c0-1.1-1.2-2.3-2.6-2.3c-1.1,0-3,0.8-3,3.7c0,0.4,0.1,0.9,0.1,1.4L-202,406.4z"/>
			<path fill="#FFFFFF" d="M-211.3,412.9c0,1,0.2,1.2,1.1,1.3c0.5,0.1,0.9,0.1,1.4,0.1l-1,0.6h-4.7c0.6-0.8,0.7-0.9,0.7-1.4v-0.6
				l0-15.7h-2.1l2-1h3.8c-0.8,0.5-1.1,0.8-1.2,1.7L-211.3,412.9z"/>
			<path fill="#FFFFFF" d="M-218.5,403.9c0.6,0.5,1.9,1.6,1.9,3.6c0,2-1.1,2.9-2.2,3.8c-0.3,0.3-0.7,0.7-0.7,1.3
				c0,0.6,0.4,0.9,0.7,1.1l1,0.7c1.2,1,2.2,1.9,2.2,3.7c0,2.5-2.4,5-7,5c-3.8,0-5.7-1.8-5.7-3.8c0-1,0.5-2.3,2-3.2
				c1.6-1,3.9-1.1,5.1-1.2c-0.4-0.5-0.8-1-0.8-1.8c0-0.4,0.1-0.7,0.3-1c-0.3,0-0.6,0.1-0.8,0.1c-2.8,0-4.4-2.1-4.4-4.2
				c0-1.2,0.6-2.6,1.7-3.5c1.5-1.2,3.3-1.5,4.7-1.5h5.5l-1.7,1L-218.5,403.9L-218.5,403.9z M-220.4,415.6c-0.2,0-0.3,0-0.6,0
				c-0.2,0-1.7,0.1-2.8,0.4c-0.6,0.2-2.3,0.8-2.3,2.7c0,1.9,1.8,3.2,4.7,3.2c2.5,0,3.9-1.2,3.9-2.9
				C-217.5,417.8-218.4,417.1-220.4,415.6z M-219.6,410.6c0.6-0.6,0.7-1.5,0.7-1.9c0-1.9-1.1-4.9-3.3-4.9c-0.7,0-1.4,0.3-1.9,0.9
				c-0.4,0.6-0.6,1.3-0.6,2c0,1.8,1,4.7,3.3,4.7C-220.7,411.3-220,411-219.6,410.6z"/>
			<path fill="#FFFFFF" d="M-234.9,415.2c-4.2,0-6.5-3.3-6.5-6.2c0-3.5,2.8-6.4,6.9-6.4c3.9,0,6.3,3,6.3,6.2
				C-228.2,411.9-230.6,415.2-234.9,415.2z M-231.6,413.1c0.6-0.8,0.8-1.9,0.8-2.9c0-2.3-1.1-6.8-4.4-6.8c-0.9,0-1.8,0.3-2.4,0.9
				c-1,0.9-1.2,2.1-1.2,3.2c0,2.6,1.3,6.9,4.5,6.9C-233.2,414.5-232.2,414-231.6,413.1z"/>
			<path fill="#FFFFFF" d="M-249,415.2c-4.2,0-6.5-3.3-6.5-6.2c0-3.5,2.8-6.4,6.9-6.4c3.9,0,6.3,3,6.3,6.2
				C-242.3,411.9-244.7,415.2-249,415.2z M-245.7,413.1c0.6-0.8,0.8-1.9,0.8-2.9c0-2.3-1.1-6.8-4.4-6.8c-0.9,0-1.7,0.3-2.4,0.9
				c-1,0.9-1.2,2.1-1.2,3.2c0,2.6,1.3,6.9,4.5,6.9C-247.3,414.5-246.3,414-245.7,413.1z"/>
			<path fill="#FFFFFF" d="M-257.1,414.3l-3.5,0.8c-1.4,0.2-2.7,0.4-4.1,0.4c-6.8,0-9.4-5-9.4-9c0-4.8,3.7-9.3,10-9.3
				c1.3,0,2.6,0.2,3.8,0.5c1.9,0.5,2.7,1.2,3.3,1.5l-2.1,2l-0.9,0.2l0.6-1c-0.8-0.8-2.4-2.3-5.3-2.3c-3.9,0-6.9,3-6.9,7.3
				c0,4.7,3.4,9,8.8,9c1.6,0,2.4-0.3,3.1-0.6v-4l-3.7,0.2l2-1.1h5.3l-0.6,0.6c-0.2,0.1-0.2,0.2-0.2,0.4c0,0.2,0,0.9,0,1.2
				L-257.1,414.3L-257.1,414.3L-257.1,414.3z"/>
		</g>
		<g>
			<path fill="#FFFFFF" d="M-190.6,413.2v6.7h-1.3v-17.1h1.3v2c0.9-1.3,2.5-2.3,4.3-2.3c3.3,0,5.6,2.5,5.6,6.5c0,4-2.2,6.5-5.6,6.5
				C-188.1,415.6-189.6,414.7-190.6,413.2z M-182.2,409c0-3-1.6-5.3-4.3-5.3c-1.7,0-3.4,1.4-4.1,2.5v5.5c0.7,1.2,2.4,2.6,4.1,2.6
				C-183.8,414.3-182.2,412-182.2,409z"/>
			<path fill="#FFFFFF" d="M-178.9,415.2v-17.1h1.3v17.1H-178.9z"/>
			<path fill="#FFFFFF" d="M-162.6,418.9c0.3,0.1,0.8,0.2,1.1,0.2c0.8,0,1.4-0.3,1.9-1.5l1-2.2l-5.3-12.5h1.5l4.5,10.8l4.5-10.8h1.5
				l-6.4,15.1c-0.7,1.6-1.7,2.3-3.2,2.3c-0.4,0-1-0.1-1.3-0.2L-162.6,418.9z"/>
			<path fill="#FFFFFF" d="M-166.5,415.2c-0.1-0.4-0.2-0.8-0.2-1.1c0-0.3-0.1-0.6-0.1-1c-0.5,0.7-1.1,1.2-1.9,1.7
				c-0.8,0.4-1.6,0.7-2.7,0.7c-1.3,0-2.3-0.3-3-1c-0.7-0.6-1.1-1.5-1.1-2.6c0-1.1,0.5-2,1.6-2.7c1-0.7,2.4-1,4.1-1h3.1v-1.5
				c0-0.9-0.3-1.6-0.9-2.1c-0.6-0.5-1.5-0.8-2.6-0.8c-1,0-1.8,0.2-2.5,0.7c-0.6,0.5-0.9,1-0.9,1.7h-1.4l0-0.1c0-0.9,0.4-1.8,1.3-2.5
				c0.9-0.7,2.1-1.1,3.6-1.1c1.5,0,2.6,0.4,3.5,1.1c0.9,0.7,1.3,1.7,1.3,3v6.1c0,0.4,0,0.9,0.1,1.3c0.1,0.4,0.1,0.8,0.3,1.2
				L-166.5,415.2L-166.5,415.2z M-171.2,414.2c1.1,0,2-0.3,2.8-0.8c0.8-0.5,1.4-1.1,1.7-1.9v-2.4h-3.1c-1.2,0-2.2,0.3-3,0.8
				c-0.8,0.5-1.2,1.2-1.2,1.9c0,0.7,0.3,1.3,0.8,1.7C-172.8,414-172.1,414.2-171.2,414.2z"/>
		</g>
	</g>
	<g>
		<polygon fill="none" points="-291.7,408.3 -287.4,404 -287.4,404 -291.7,408.3 -305.4,394.6 -305.4,394.6 -291.7,408.3 
			-305.4,422.1 -305.4,422.1 -291.7,408.3 -287.3,412.6 -287.3,412.6 		"/>
		
			<linearGradient id="SVGID_1_" gradientUnits="userSpaceOnUse" x1="166.003" y1="-149.0655" x2="147.9149" y2="-160.3858" gradientTransform="matrix(0.7071 0.7071 -0.7071 0.7071 -517.333 395.2498)">
			<stop  offset="0" style="stop-color:#D7E69D"/>
			<stop  offset="0.4456" style="stop-color:#94C4AA"/>
			<stop  offset="1" style="stop-color:#01A4B6"/>
		</linearGradient>
		<path fill="url(#SVGID_1_)" d="M-287.4,404l-16.7-9.2c-0.5-0.3-0.9-0.3-1.3-0.2l13.7,13.7L-287.4,404z"/>
		
			<linearGradient id="SVGID_2_" gradientUnits="userSpaceOnUse" x1="155.488" y1="-158.7356" x2="178.9387" y2="-152.6053" gradientTransform="matrix(0.7071 0.7071 -0.7071 0.7071 -517.333 395.2498)">
			<stop  offset="0" style="stop-color:#ED277B"/>
			<stop  offset="1.920000e-002" style="stop-color:#EE2F7C"/>
			<stop  offset="0.7039" style="stop-color:#F7BD81"/>
			<stop  offset="1" style="stop-color:#FEEB74"/>
		</linearGradient>
		<path fill="url(#SVGID_2_)" d="M-287.3,412.6l5.7-3.1c1.2-0.6,1.2-1.7,0-2.3l-5.7-3.1l-4.3,4.3L-287.3,412.6z"/>
		
			<linearGradient id="SVGID_3_" gradientUnits="userSpaceOnUse" x1="168.578" y1="-140.4792" x2="143.1471" y2="-155.4413" gradientTransform="matrix(0.7071 0.7071 -0.7071 0.7071 -517.333 395.2498)">
			<stop  offset="0" style="stop-color:#89CFBD"/>
			<stop  offset="9.070000e-002" style="stop-color:#7DBEBB"/>
			<stop  offset="0.5396" style="stop-color:#457CAC"/>
			<stop  offset="0.8523" style="stop-color:#1C5AA2"/>
			<stop  offset="1" style="stop-color:#084D9F"/>
		</linearGradient>
		<path fill="url(#SVGID_3_)" d="M-305.4,394.6c-0.5,0.2-0.8,0.7-0.8,1.5l0,24.5c0,0.8,0.3,1.3,0.8,1.4l13.7-13.7L-305.4,394.6z"/>
		
			<linearGradient id="SVGID_4_" gradientUnits="userSpaceOnUse" x1="177.8121" y1="-152.3607" x2="162.152" y2="-131.7292" gradientTransform="matrix(0.7071 0.7071 -0.7071 0.7071 -517.333 395.2498)">
			<stop  offset="0" style="stop-color:#F04A2B"/>
			<stop  offset="0.4704" style="stop-color:#B54F6B"/>
			<stop  offset="0.8353" style="stop-color:#8B5191"/>
			<stop  offset="1" style="stop-color:#7851A1"/>
		</linearGradient>
		<path fill="url(#SVGID_4_)" d="M-305.4,422.1c0.4,0.1,0.8,0.1,1.3-0.2l16.7-9.2l-4.3-4.3L-305.4,422.1z"/>
	</g>
</g>
<g>
	<path fill="#FFFFFF" d="M-267.5,389.5c-0.3,0.2-1.1,0.3-2.1,0.3c-2.8,0-4.2-1.7-4.2-4c0-2.8,2-4.3,4.4-4.3c0.9,0,1.7,0.2,2,0.4
		l-0.4,1.5c-0.4-0.2-0.9-0.3-1.5-0.3c-1.5,0-2.6,0.9-2.6,2.7c0,1.6,1,2.6,2.6,2.6c0.6,0,1.2-0.1,1.5-0.3L-267.5,389.5z"/>
	<path fill="#FFFFFF" d="M-259.2,385.6c0,2.7-1.6,4.3-4,4.3c-2.4,0-3.8-1.8-3.8-4.1c0-2.4,1.5-4.2,3.9-4.2
		C-260.6,381.5-259.2,383.4-259.2,385.6z M-265.1,385.7c0,1.6,0.7,2.7,2,2.7c1.2,0,1.9-1.2,1.9-2.7c0-1.5-0.7-2.7-2-2.7
		C-264.3,382.9-265.1,384.1-265.1,385.7z"/>
	<path fill="#FFFFFF" d="M-251.2,386.6c0-1-0.1-2.1-0.1-3.3h0c-0.3,1-0.6,2.2-0.9,3.1l-1,3.2h-1.4l-0.9-3.1
		c-0.3-0.9-0.5-2.1-0.7-3.2h0c0,1.1-0.1,2.3-0.1,3.3l-0.1,3.1h-1.7l0.5-8.1h2.4l0.8,2.7c0.3,0.9,0.5,1.9,0.7,2.9h0
		c0.2-0.9,0.5-2,0.8-2.9l0.9-2.7h2.4l0.4,8.1h-1.8L-251.2,386.6z"/>
	<path fill="#FFFFFF" d="M-246,381.6v8.1h-1.8v-8.1H-246z"/>
	<path fill="#FFFFFF" d="M-244.4,389.7v-8.1h2.1l1.7,3c0.5,0.9,1,1.9,1.3,2.8h0c-0.1-1.1-0.2-2.2-0.2-3.4v-2.4h1.7v8.1h-1.9
		l-1.7-3.1c-0.5-0.9-1-1.9-1.4-2.9l0,0c0,1.1,0.1,2.2,0.1,3.5v2.4H-244.4z"/>
	<path fill="#FFFFFF" d="M-229.4,389.3c-0.6,0.2-1.6,0.5-2.7,0.5c-1.5,0-2.5-0.4-3.3-1.1c-0.7-0.7-1.2-1.8-1.1-2.9
		c0-2.7,2-4.2,4.6-4.2c1,0,1.8,0.2,2.2,0.4l-0.4,1.5c-0.4-0.2-1-0.3-1.9-0.3c-1.5,0-2.7,0.9-2.7,2.6c0,1.7,1,2.7,2.5,2.7
		c0.4,0,0.8,0,0.9-0.1v-1.7h-1.2v-1.4h3V389.3z"/>
	<path fill="#FFFFFF" d="M-225.5,387.8c0.5,0.3,1.2,0.5,2,0.5c0.8,0,1.3-0.3,1.3-0.9c0-0.5-0.4-0.8-1.4-1.1
		c-1.3-0.5-2.2-1.2-2.2-2.4c0-1.4,1.2-2.4,3.1-2.4c0.9,0,1.6,0.2,2.1,0.4l-0.4,1.5c-0.3-0.2-0.9-0.4-1.7-0.4c-0.8,0-1.2,0.4-1.2,0.8
		c0,0.5,0.5,0.7,1.5,1.1c1.4,0.5,2.1,1.3,2.1,2.4c0,1.4-1,2.5-3.3,2.5c-0.9,0-1.8-0.2-2.3-0.5L-225.5,387.8z"/>
	<path fill="#FFFFFF" d="M-211.7,385.6c0,2.7-1.6,4.3-4,4.3c-2.4,0-3.8-1.8-3.8-4.1c0-2.4,1.5-4.2,3.9-4.2
		C-213,381.5-211.7,383.4-211.7,385.6z M-217.5,385.7c0,1.6,0.7,2.7,2,2.7c1.2,0,1.9-1.2,1.9-2.7c0-1.5-0.7-2.7-2-2.7
		C-216.8,382.9-217.5,384.1-217.5,385.7z"/>
	<path fill="#FFFFFF" d="M-203.1,385.6c0,2.7-1.6,4.3-4,4.3c-2.4,0-3.8-1.8-3.8-4.1c0-2.4,1.5-4.2,3.9-4.2
		C-204.4,381.5-203.1,383.4-203.1,385.6z M-208.9,385.7c0,1.6,0.7,2.7,2,2.7c1.2,0,1.9-1.2,1.9-2.7c0-1.5-0.7-2.7-2-2.7
		C-208.2,382.9-208.9,384.1-208.9,385.7z"/>
	<path fill="#FFFFFF" d="M-201.9,389.7v-8.1h2.1l1.7,3c0.5,0.9,1,1.9,1.3,2.8h0c-0.1-1.1-0.2-2.2-0.2-3.4v-2.4h1.7v8.1h-1.9
		l-1.7-3.1c-0.5-0.9-1-1.9-1.4-2.9l0,0c0,1.1,0.1,2.2,0.1,3.5v2.4H-201.9z"/>
	<path fill="#FFFFFF" d="M-190.1,383.2h-2.2v-1.5h6.2v1.5h-2.2v6.5h-1.8V383.2z"/>
	<path fill="#FFFFFF" d="M-178,385.6c0,2.7-1.6,4.3-4,4.3c-2.4,0-3.8-1.8-3.8-4.1c0-2.4,1.5-4.2,3.9-4.2
		C-179.4,381.5-178,383.4-178,385.6z M-183.8,385.7c0,1.6,0.7,2.7,2,2.7c1.2,0,1.9-1.2,1.9-2.7c0-1.5-0.7-2.7-2-2.7
		C-183.1,382.9-183.8,384.1-183.8,385.7z"/>
</g>
</svg>
