<svg width="186" height="80" viewBox="0 0 186 80" fill="none" xmlns="http://www.w3.org/2000/svg">
<path d="M46.65 59.15V72.3C47.8833 72.7667 48.8 73.3833 49.4 74.15L48.9 78H39.1L38.6 74.15C39.2 73.3833 40.1167 72.7667 41.35 72.3V49.2C39.9833 48.7 39.0333 48.0833 38.5 47.35L39 43.5H49.3L59.25 62.9C59.9833 64.3 60.7 66.1667 61.4 68.5L61.75 69.7L62.3 69.5C61.8333 66.6 61.6 64.1667 61.6 62.2V49.25C60.4 48.7833 59.4833 48.15 58.85 47.35L59.35 43.5H69.15L69.65 47.35C69.0167 48.15 68.1 48.7833 66.9 49.25V78H59.05L49 58.45C48.2667 57.05 47.55 55.1667 46.85 52.8L46.5 51.65L45.95 51.85C46.4167 54.75 46.65 57.1833 46.65 59.15ZM72.6891 53C74.5557 52.5667 76.2891 52.35 77.8891 52.35C79.4891 52.35 80.8391 52.4 81.9391 52.5V72.45C83.2391 72.95 84.1557 73.5167 84.6891 74.15L84.1891 78H72.6891L72.1891 74.15C72.6557 73.5167 73.5724 72.95 74.9391 72.45V58.55C73.7724 58.15 72.8557 57.5833 72.1891 56.85L72.6891 53ZM78.3391 49.55C75.5724 49.55 74.1891 48.3 74.1891 45.8C74.1891 43.2667 75.5724 42 78.3391 42C81.1391 42 82.5391 43.2667 82.5391 45.8C82.5391 48.3 81.1391 49.55 78.3391 49.55ZM102.105 78.3H96.6051L88.4051 58.8C86.7384 58.2667 85.6217 57.6167 85.0551 56.85L85.5551 53H97.0551L97.5551 56.85C97.1217 57.3833 96.4051 57.8667 95.4051 58.3L98.1051 65.85C98.7051 67.4167 99.1384 68.9667 99.4051 70.5L99.5051 71.2H100.205C100.472 69.5333 100.938 67.7833 101.605 65.95L104.255 58.55C103.022 58.0833 102.155 57.5167 101.655 56.85L102.155 53H113.155L113.655 56.85C113.055 57.6167 111.955 58.2667 110.355 58.8L102.105 78.3ZM127.302 78.4C123.302 78.4 120.285 77.3333 118.252 75.2C116.252 73.0667 115.252 69.9667 115.252 65.9C115.252 63.4333 115.602 61.3167 116.302 59.55C117.002 57.75 117.952 56.3667 119.152 55.4C121.485 53.5333 124.202 52.6 127.302 52.6C130.402 52.6 132.769 53.4 134.402 55C136.069 56.5667 136.902 59.4 136.902 63.5C136.902 65.9 135.719 67.1 133.352 67.1H122.502C122.635 69.2 123.169 70.6833 124.102 71.55C125.069 72.4167 126.585 72.85 128.652 72.85C129.785 72.85 130.869 72.7167 131.902 72.45C132.935 72.1833 133.685 71.9167 134.152 71.65L134.852 71.25L136.352 75.25C136.152 75.4833 135.852 75.7833 135.452 76.15C135.085 76.4833 134.119 76.95 132.552 77.55C131.019 78.1167 129.269 78.4 127.302 78.4ZM130.452 62.65C130.519 62.1833 130.552 61.6167 130.552 60.95C130.552 60.2833 130.285 59.5833 129.752 58.85C129.219 58.0833 128.285 57.7 126.952 57.7C125.652 57.7 124.652 58.1 123.952 58.9C123.252 59.7 122.785 61.05 122.552 62.95L130.452 62.65ZM139.372 42.5C141.239 42.0667 142.972 41.85 144.572 41.85C146.172 41.85 147.522 41.9 148.622 42V72.45C149.922 72.95 150.839 73.5167 151.372 74.15L150.872 78H139.372L138.872 74.15C139.339 73.5167 140.255 72.95 141.622 72.45V48.05C140.455 47.65 139.539 47.0833 138.872 46.35L139.372 42.5ZM164.987 78.4C161.053 78.4 158.137 77.35 156.237 75.25C154.337 73.15 153.387 69.9833 153.387 65.75C153.387 61.4833 154.437 58.2333 156.537 56C158.67 53.7333 161.72 52.6 165.687 52.6C169.653 52.6 172.587 53.6 174.487 55.6C176.42 57.6 177.387 60.7333 177.387 65C177.387 69.2333 176.303 72.5333 174.137 74.9C172.003 77.2333 168.953 78.4 164.987 78.4ZM160.587 65.3C160.587 70.6333 162.187 73.3 165.387 73.3C167.02 73.3 168.22 72.7 168.987 71.5C169.787 70.2667 170.187 68.2667 170.187 65.5C170.187 60.3 168.553 57.7 165.287 57.7C163.687 57.7 162.503 58.2833 161.737 59.45C160.97 60.5833 160.587 62.5333 160.587 65.3Z" fill="black"/>
<g clip-path="url(#clip0)">
<path d="M16.9621 38.0957L15.9824 38.3234L16.4489 40.3309L17.4286 40.1033L16.9621 38.0957Z" fill="#2D404E"/>
<path d="M16.3817 38.2306L15.9824 38.3234L16.4489 40.3309L16.8482 40.2381L16.3817 38.2306Z" fill="#253744"/>
<path d="M32.6909 28.482L35.9388 42.4586C35.9388 42.4586 38.8621 40.1639 42.3465 38.4011C45.8308 36.6388 49.8746 34.7877 50.1775 33.0603C49.8633 31.3521 47.0596 25.1684 44.0986 23.1225L32.6909 28.482Z" fill="#2D404E"/>
<path opacity="0.5" d="M49.5259 31.1092C48.4712 28.5539 46.3297 24.6639 44.0987 23.1222L32.6909 28.4818L33.1353 30.394L43.5461 24.5542C43.5461 24.5542 47.0927 27.1588 48.4853 32.8753C49.7761 31.9216 49.5477 31.1716 49.5259 31.1092Z" fill="#253744"/>
<path opacity="0.7" d="M47.3985 33.1278C46.2869 33.7836 40.4428 36.2672 38.4893 37.3305C36.9868 38.1484 35.745 39.016 35.2307 39.4195L35.9369 42.4586C35.9369 42.4586 38.8603 40.1638 42.3447 38.4011C45.829 36.6388 49.8727 34.7877 50.1756 33.0603C50.0961 32.6271 49.8556 31.9052 49.4938 31.0368C49.0833 32.08 48.2975 32.5973 47.3985 33.1278Z" fill="#253744"/>
<path d="M30.2904 18.155L3.61125 28.3496L3.76053 28.992L32.6902 28.4821L58.8805 16.1835L58.7312 15.5411L30.2904 18.155Z" fill="#2D404E"/>
<path d="M18.0391 41.0293C17.8713 40.598 17.4207 40.1057 17.4207 40.1057L16.9327 40.2011L16.4524 40.3307C16.4524 40.3307 16.2653 40.9713 16.3046 41.4324C16.3441 41.8936 18.4764 52.1623 18.7277 53.1714C18.9791 54.1802 20.1035 53.8466 20.1035 53.8466C20.1035 53.8466 21.2597 53.6503 21.0403 52.634C20.8214 51.6174 18.2071 41.4607 18.0391 41.0293Z" fill="#F2B643"/>
<path d="M32.6899 28.482L35.9377 42.4586C35.9377 42.4586 32.3018 41.688 28.3973 41.6423C24.4928 41.5969 20.0472 41.7186 19.0136 40.3018C18.5423 38.6301 18.3324 31.8437 20.0878 28.7017L32.6899 28.482Z" fill="#253744"/>
<path d="M35.454 40.3756L35.938 42.4587C35.938 42.4587 38.8614 40.164 42.3458 38.4012C45.8301 36.6389 49.8738 34.7878 50.1767 33.0605C50.0994 32.6385 49.8697 31.9432 49.5233 31.1049C49.5233 31.1049 49.9 32.0478 48.0116 33.1908C46.1229 34.3339 42.1066 36.3027 40.4385 37.1462C38.7704 37.9892 36.2608 39.6496 35.454 40.3756Z" fill="#F2B643"/>
<path d="M58.7313 15.5411L58.8806 16.1835L32.8608 29.2158L3.7606 28.992L3.61133 28.3496L32.519 27.4399L58.7313 15.5411Z" fill="#253744"/>
<path d="M16.53 38.4641C16.9677 38.3624 17.2624 38.0211 17.1882 37.7018C17.114 37.3825 16.699 37.2061 16.2613 37.3078C15.8236 37.4095 15.5289 37.7508 15.6031 38.0701C15.6773 38.3894 16.0923 38.5658 16.53 38.4641Z" fill="#F2B643"/>
<path opacity="0.5" d="M49.582 31.2508C49.6022 31.3004 49.6229 31.3507 49.6422 31.399C49.6229 31.3507 49.6022 31.3004 49.582 31.2508Z" fill="#253744"/>
<path opacity="0.5" d="M49.7051 31.5651C49.7217 31.6079 49.739 31.652 49.755 31.6939C49.739 31.652 49.7217 31.608 49.7051 31.5651Z" fill="#253744"/>
<path opacity="0.5" d="M49.8164 31.8589C49.8302 31.8962 49.8448 31.9351 49.8576 31.9714C49.8448 31.9351 49.8302 31.8963 49.8164 31.8589Z" fill="#253744"/>
<path opacity="0.5" d="M49.9141 32.1347C49.9252 32.1667 49.9373 32.2005 49.9475 32.2318C49.9373 32.2005 49.9252 32.1667 49.9141 32.1347Z" fill="#253744"/>
<path opacity="0.5" d="M49.8712 33.7491C49.8498 33.7799 49.8274 33.8108 49.8041 33.8417C49.8274 33.8108 49.8497 33.7798 49.8712 33.7491Z" fill="#253744"/>
<path opacity="0.5" d="M50.0684 32.6159C50.0755 32.6409 50.0837 32.6679 50.0905 32.692C50.0838 32.6678 50.0755 32.6409 50.0684 32.6159Z" fill="#253744"/>
<path opacity="0.5" d="M49.9846 33.5683C49.9596 33.6125 49.9329 33.6566 49.904 33.7007C49.9331 33.6565 49.9594 33.6126 49.9846 33.5683Z" fill="#253744"/>
<path opacity="0.5" d="M49.5922 34.0948C49.5739 34.1151 49.5551 34.1352 49.5359 34.1555C49.5551 34.1353 49.5739 34.1151 49.5922 34.0948Z" fill="#253744"/>
<path opacity="0.5" d="M49.7583 33.9017C49.7269 33.9412 49.694 33.9809 49.6598 34.0205C49.694 33.9809 49.7269 33.9412 49.7583 33.9017Z" fill="#253744"/>
<path opacity="0.5" d="M49.2465 34.437C49.2357 34.4468 49.2246 34.4567 49.2138 34.4664C49.2247 34.4567 49.2357 34.4468 49.2465 34.437Z" fill="#253744"/>
<path opacity="0.5" d="M49.9961 32.3848C50.0052 32.4138 50.0155 32.4445 50.0242 32.4727C50.0155 32.4445 50.0052 32.4138 49.9961 32.3848Z" fill="#253744"/>
<path opacity="0.5" d="M50.1313 33.24C50.1163 33.2871 50.0993 33.3341 50.0793 33.3812C50.0994 33.334 50.1164 33.2869 50.1313 33.24Z" fill="#253744"/>
<path opacity="0.5" d="M50.068 33.4031C50.05 33.4435 50.0299 33.484 50.0081 33.5246C50.0299 33.484 50.05 33.4435 50.068 33.4031Z" fill="#253744"/>
<path opacity="0.5" d="M50.1761 33.0605C50.1678 33.1085 50.1554 33.1565 50.1413 33.2047C50.1554 33.1565 50.1678 33.1087 50.1761 33.0605Z" fill="#253744"/>
<path opacity="0.5" d="M50.125 32.8276C50.1298 32.8475 50.1361 32.8694 50.1404 32.8883C50.136 32.8695 50.1297 32.8475 50.125 32.8276Z" fill="#253744"/>
<path d="M49.5234 31.1049C49.5234 31.1049 49.5241 31.1069 49.5252 31.1096C49.545 31.1576 49.5636 31.204 49.5824 31.2509C49.563 31.2023 49.5441 31.1548 49.5234 31.1049Z" fill="#F2B643"/>
<path d="M49.5363 34.1553C49.4475 34.2492 49.3507 34.3431 49.2465 34.4374C49.3509 34.3432 49.4476 34.2492 49.5363 34.1553Z" fill="#F2B643"/>
<path d="M49.6595 34.0206C49.6383 34.0453 49.6156 34.07 49.593 34.0948C49.6153 34.0699 49.6381 34.0452 49.6595 34.0206Z" fill="#F2B643"/>
<path d="M49.9071 33.7003C49.8961 33.717 49.884 33.7334 49.8725 33.7501C49.884 33.7335 49.8961 33.717 49.9071 33.7003Z" fill="#F2B643"/>
<path d="M49.9853 33.5698C49.994 33.5547 50.0019 33.5395 50.0101 33.5243C50.0019 33.5396 49.9939 33.5547 49.9853 33.5698Z" fill="#F2B643"/>
<path d="M50.0898 32.6922C50.1032 32.74 50.1137 32.7837 50.1249 32.828C50.1138 32.7837 50.1032 32.74 50.0898 32.6922Z" fill="#F2B643"/>
<path d="M49.8026 33.8416C49.7875 33.8617 49.7729 33.8817 49.757 33.9018C49.7728 33.8817 49.7878 33.8618 49.8026 33.8416Z" fill="#F2B643"/>
<path d="M50.0788 33.3809C50.0755 33.3882 50.0718 33.3953 50.0687 33.4025C50.0719 33.3954 50.0755 33.3882 50.0788 33.3809Z" fill="#F2B643"/>
<path d="M50.1401 32.8885C50.1546 32.9499 50.1668 33.0074 50.1765 33.0605C50.1668 33.0073 50.1546 32.95 50.1401 32.8885Z" fill="#F2B643"/>
<path d="M49.9473 32.2317C49.9652 32.2847 49.9807 32.3343 49.9965 32.3846C49.9807 32.3343 49.965 32.2847 49.9473 32.2317Z" fill="#F2B643"/>
<path d="M50.0254 32.4725C50.0408 32.5226 50.0538 32.5687 50.0673 32.6158C50.0538 32.5687 50.0408 32.5226 50.0254 32.4725Z" fill="#F2B643"/>
<path d="M49.8594 31.9715C49.8795 32.0276 49.8976 32.0807 49.9159 32.1345C49.8976 32.0807 49.8795 32.0276 49.8594 31.9715Z" fill="#F2B643"/>
<path d="M50.1418 33.2046C50.1381 33.2167 50.1346 33.2288 50.1305 33.2411C50.1346 33.2288 50.1382 33.2166 50.1418 33.2046Z" fill="#F2B643"/>
<path d="M49.6426 31.399C49.6649 31.4558 49.6856 31.5098 49.7067 31.5649C49.6857 31.5098 49.6649 31.4558 49.6426 31.399Z" fill="#F2B643"/>
<path d="M49.7559 31.6936C49.7772 31.7503 49.7967 31.8043 49.8166 31.8589C49.7967 31.8043 49.7772 31.7503 49.7559 31.6936Z" fill="#F2B643"/>
<path d="M50.0673 33.4031C50.0705 33.3957 50.0743 33.3885 50.0777 33.381C50.0977 33.3339 50.1148 33.2868 50.1298 33.2398C50.1337 33.2279 50.1371 33.2163 50.1407 33.2045C50.1548 33.1563 50.1671 33.1084 50.1755 33.0604C50.1657 33.0073 50.1535 32.9498 50.139 32.8883C50.1346 32.8694 50.1284 32.8475 50.1236 32.8277C50.1124 32.7836 50.1018 32.7398 50.0885 32.6919C50.0817 32.6677 50.0736 32.6409 50.0664 32.6158C50.0528 32.5688 50.0398 32.5225 50.0244 32.4724C50.0156 32.4443 50.0054 32.4135 49.9963 32.3846C49.9804 32.3341 49.9649 32.2846 49.947 32.2316C49.9369 32.2003 49.9249 32.1665 49.9136 32.1345C49.8953 32.0807 49.8772 32.0276 49.8571 31.9714C49.8442 31.935 49.8296 31.8962 49.8158 31.8589C49.7959 31.8043 49.7764 31.7503 49.7551 31.6937C49.7391 31.6518 49.7218 31.6077 49.7052 31.5649C49.6842 31.5099 49.6634 31.4558 49.6411 31.399C49.6219 31.3507 49.6012 31.3004 49.5809 31.2509C49.5621 31.204 49.5435 31.1576 49.5237 31.1095C49.5454 31.1719 49.7738 31.9219 48.4831 32.8756C48.629 33.4744 48.7515 34.1068 48.8435 34.7744C48.9751 34.6713 49.0985 34.5683 49.2138 34.4655C49.2242 34.4562 49.2349 34.4468 49.2453 34.4372C49.3495 34.3431 49.4462 34.249 49.5351 34.1552C49.5543 34.135 49.5731 34.1148 49.5914 34.0946C49.614 34.0698 49.6367 34.0451 49.6579 34.0204C49.6922 33.9809 49.7251 33.9412 49.7564 33.9017C49.7724 33.8815 49.7871 33.8617 49.802 33.8415C49.8254 33.8105 49.8477 33.7797 49.8691 33.7489C49.8802 33.7328 49.8918 33.7169 49.9025 33.7008C49.9315 33.6566 49.9583 33.6126 49.9832 33.5684C49.9916 33.5538 49.9992 33.5391 50.0071 33.5245C50.0292 33.4841 50.0492 33.4435 50.0673 33.4031Z" fill="#D89932"/>
<path d="M35.4548 40.3755L35.9389 42.4587C35.9389 42.4587 32.303 41.6881 28.3986 41.6424C24.494 41.597 20.0484 41.7187 19.0148 40.3018C18.8985 39.889 18.798 39.1636 18.7391 38.2586C18.7391 38.2586 18.8167 39.2709 21.0158 39.4641C23.2146 39.6574 27.6878 39.6534 29.5571 39.6749C31.4258 39.6961 34.4103 40.0797 35.4548 40.3755Z" fill="#F2B643"/>
<path opacity="0.5" d="M35.4538 40.3757C34.7787 40.1845 33.2932 39.9568 31.8223 39.8137L32.3068 41.899C34.4263 42.1387 35.9379 42.4587 35.9379 42.4587L35.4538 40.3757Z" fill="#D89932"/>
<g opacity="0.7">
<path opacity="0.7" d="M15.1186 28.792L14.2744 28.7835L14.4914 27.9744L30.4072 21.7877L30.6446 22.403L15.1186 28.792Z" fill="#253744"/>
</g>
<path d="M16.497 37.4756L16.1116 37.5652L14.0726 28.7903L14.2218 27.8654L29.6886 21.9532L29.83 22.3228L14.5761 28.1537L14.4756 28.7765L16.497 37.4756Z" fill="#F2B643"/>
<path d="M31.2799 22.5734C32.3048 22.3353 33.0507 21.7768 32.9459 21.3261C32.8412 20.8754 31.9255 20.703 30.9006 20.9412C29.8757 21.1793 29.1298 21.7378 29.2346 22.1885C29.3393 22.6393 30.255 22.8116 31.2799 22.5734Z" fill="#253744"/>
<path d="M31.2081 22.0975C32.2134 21.8639 32.9677 21.4138 32.893 21.0922C32.8183 20.7706 31.9427 20.6992 30.9374 20.9329C29.9321 21.1665 29.1778 21.6165 29.2525 21.9381C29.3272 22.2598 30.2028 22.3311 31.2081 22.0975Z" fill="#586A73"/>
<path opacity="0.1" d="M34.1471 24.3701L21.1281 27.0102L32.6754 26.5839L53.6905 17.3655C53.6905 17.3655 40.5239 22.8672 34.1471 24.3701Z" fill="#C6CBCB"/>
<path d="M16.9912 38.2265C16.8742 38.3353 16.7146 38.4211 16.5298 38.464C16.0918 38.5658 15.6769 38.3894 15.6027 38.0701C15.5402 37.8008 15.7399 37.5158 16.0667 37.3722C16.0667 37.3722 15.7798 37.6446 15.9573 37.9973C16.2312 38.5422 16.9912 38.2265 16.9912 38.2265Z" fill="#D89932"/>
<path d="M18.8508 50.674C18.4863 49.2013 16.6788 42.1053 16.7161 41.4872C16.7382 41.1227 16.7773 40.6022 16.8058 40.2355L16.4533 40.3306C16.4533 40.3306 16.2662 40.9712 16.3055 41.4323C16.3451 41.8935 18.4773 52.1622 18.7286 53.1713C18.98 54.1801 20.1044 53.8465 20.1044 53.8465C20.1044 53.8465 20.5399 53.7716 20.8256 53.479C19.522 53.6786 19.1846 52.0212 18.8508 50.674Z" fill="#D89932"/>
<path opacity="0.3" d="M20.3402 50.57C20.3519 50.6159 20.2722 50.676 20.1617 50.7044C20.0517 50.7326 19.953 50.7181 19.9413 50.6724L17.5029 41.1738C17.4911 41.1279 17.5707 41.068 17.681 41.0397C17.7912 41.0115 17.8898 41.0257 17.9018 41.0715L20.3402 50.57Z" fill="white"/>
</g>
<defs>
<clipPath id="clip0">
<rect width="56.5886" height="56.5886" fill="white" transform="translate(0 12.8085) rotate(-13.0819)"/>
</clipPath>
</defs>
</svg>
