<svg width="179" height="55" viewBox="0 0 179 55" fill="none" xmlns="http://www.w3.org/2000/svg">
<path d="M13.3545 14.9443L27.2949 36.0381V14.749C27.2949 13.3656 27.5879 12.332 28.1738 11.6484C28.776 10.9486 29.5817 10.5986 30.5908 10.5986C31.6325 10.5986 32.4544 10.9486 33.0566 11.6484C33.6589 12.332 33.96 13.3656 33.96 14.749V42.8984C33.96 46.0397 32.6579 47.6104 30.0537 47.6104C29.4027 47.6104 28.8167 47.5127 28.2959 47.3174C27.7751 47.1383 27.2868 46.8454 26.8311 46.4385C26.3753 46.0316 25.9521 45.5596 25.5615 45.0225C25.1709 44.4691 24.7803 43.9076 24.3896 43.3379L10.791 22.4883V43.46C10.791 44.8271 10.4736 45.8607 9.83887 46.5605C9.2041 47.2604 8.3903 47.6104 7.39746 47.6104C6.37207 47.6104 5.55013 47.2604 4.93164 46.5605C4.31315 45.8444 4.00391 44.8109 4.00391 43.46V15.8477C4.00391 14.6758 4.13411 13.7562 4.39453 13.0889C4.70378 12.3564 5.21647 11.7624 5.93262 11.3066C6.64876 10.8346 7.42188 10.5986 8.25195 10.5986C8.90299 10.5986 9.45638 10.7044 9.91211 10.916C10.3841 11.1276 10.791 11.4124 11.1328 11.7705C11.4909 12.1286 11.849 12.5924 12.207 13.1621C12.5814 13.7318 12.9639 14.3258 13.3545 14.9443ZM48.0957 24.2949V43.5576C48.0957 44.8923 47.7783 45.9014 47.1436 46.585C46.5088 47.2686 45.7031 47.6104 44.7266 47.6104C43.75 47.6104 42.9525 47.2604 42.334 46.5605C41.7318 45.8607 41.4307 44.8597 41.4307 43.5576V24.4902C41.4307 23.1719 41.7318 22.179 42.334 21.5117C42.9525 20.8444 43.75 20.5107 44.7266 20.5107C45.7031 20.5107 46.5088 20.8444 47.1436 21.5117C47.7783 22.179 48.0957 23.1068 48.0957 24.2949ZM44.7998 17.4102C43.8721 17.4102 43.0745 17.1253 42.4072 16.5557C41.7562 15.986 41.4307 15.1803 41.4307 14.1387C41.4307 13.1947 41.7643 12.4215 42.4316 11.8193C43.1152 11.2008 43.9046 10.8916 44.7998 10.8916C45.6624 10.8916 46.4274 11.1683 47.0947 11.7217C47.762 12.2751 48.0957 13.0807 48.0957 14.1387C48.0957 15.1641 47.7702 15.9697 47.1191 16.5557C46.4681 17.1253 45.695 17.4102 44.7998 17.4102ZM59.7168 24.6611L65.1123 39.7979L70.9229 24.002C71.3786 22.7324 71.8262 21.8372 72.2656 21.3164C72.7051 20.7793 73.3724 20.5107 74.2676 20.5107C75.1139 20.5107 75.8301 20.7956 76.416 21.3652C77.0182 21.9349 77.3193 22.5941 77.3193 23.3428C77.3193 23.6357 77.2624 23.9775 77.1484 24.3682C77.0508 24.7588 76.9287 25.125 76.7822 25.4668C76.652 25.8086 76.4974 26.1992 76.3184 26.6387L69.9219 42.5078C69.7428 42.9635 69.5068 43.5413 69.2139 44.2412C68.9372 44.9411 68.6198 45.5433 68.2617 46.0479C67.9199 46.5361 67.4886 46.9186 66.9678 47.1953C66.4632 47.472 65.8447 47.6104 65.1123 47.6104C64.1683 47.6104 63.4115 47.3988 62.8418 46.9756C62.2884 46.5361 61.8734 46.0641 61.5967 45.5596C61.3363 45.0387 60.8887 44.0215 60.2539 42.5078L53.9062 26.8096C53.7598 26.4189 53.6051 26.0283 53.4424 25.6377C53.2959 25.2471 53.1657 24.8483 53.0518 24.4414C52.9541 24.0345 52.9053 23.6846 52.9053 23.3916C52.9053 22.9359 53.0436 22.4883 53.3203 22.0488C53.597 21.5931 53.9795 21.2269 54.4678 20.9502C54.9561 20.6572 55.485 20.5107 56.0547 20.5107C57.1615 20.5107 57.9183 20.8281 58.3252 21.4629C58.7484 22.0977 59.2122 23.1637 59.7168 24.6611ZM100.024 35.6963H86.9873C87.0036 37.21 87.3047 38.5446 87.8906 39.7002C88.4928 40.8558 89.2822 41.7266 90.2588 42.3125C91.2516 42.8984 92.3421 43.1914 93.5303 43.1914C94.3278 43.1914 95.0521 43.1019 95.7031 42.9229C96.3704 42.7275 97.0133 42.4346 97.6318 42.0439C98.2503 41.637 98.82 41.2057 99.3408 40.75C99.8617 40.2943 100.537 39.6758 101.367 38.8945C101.709 38.6016 102.197 38.4551 102.832 38.4551C103.516 38.4551 104.069 38.6423 104.492 39.0166C104.915 39.391 105.127 39.9199 105.127 40.6035C105.127 41.2057 104.891 41.9137 104.419 42.7275C103.947 43.5251 103.231 44.2982 102.271 45.0469C101.326 45.7793 100.13 46.3896 98.6816 46.8779C97.2493 47.3662 95.5973 47.6104 93.7256 47.6104C89.445 47.6104 86.1165 46.3896 83.7402 43.9482C81.3639 41.5068 80.1758 38.1947 80.1758 34.0117C80.1758 32.0423 80.4688 30.2194 81.0547 28.543C81.6406 26.8503 82.4951 25.4017 83.6182 24.1973C84.7412 22.9928 86.1247 22.0732 87.7686 21.4385C89.4124 20.7874 91.2354 20.4619 93.2373 20.4619C95.8415 20.4619 98.0713 21.0153 99.9268 22.1221C101.799 23.2126 103.198 24.6286 104.126 26.3701C105.054 28.1117 105.518 29.8857 105.518 31.6924C105.518 33.3688 105.037 34.4593 104.077 34.9639C103.117 35.4521 101.766 35.6963 100.024 35.6963ZM86.9873 31.9121H99.0723C98.9095 29.6335 98.291 27.9326 97.2168 26.8096C96.1589 25.6702 94.7591 25.1006 93.0176 25.1006C91.3574 25.1006 89.9902 25.6784 88.916 26.834C87.8581 27.9733 87.2152 29.666 86.9873 31.9121ZM111.157 43.5576V14.6514C111.157 13.3167 111.45 12.3076 112.036 11.624C112.638 10.9404 113.444 10.5986 114.453 10.5986C115.462 10.5986 116.276 10.9404 116.895 11.624C117.513 12.2913 117.822 13.3005 117.822 14.6514V43.5576C117.822 44.9085 117.505 45.9258 116.87 46.6094C116.252 47.2767 115.446 47.6104 114.453 47.6104C113.477 47.6104 112.679 47.2604 112.061 46.5605C111.458 45.8607 111.157 44.8597 111.157 43.5576Z" fill="#FF4338"/>
<path d="M149.683 34.0605C149.683 36.0462 149.373 37.8773 148.755 39.5537C148.136 41.2301 147.241 42.6706 146.069 43.875C144.897 45.0794 143.498 46.0072 141.87 46.6582C140.243 47.293 138.411 47.6104 136.377 47.6104C134.359 47.6104 132.544 47.2848 130.933 46.6338C129.321 45.9827 127.922 45.055 126.733 43.8506C125.562 42.6299 124.666 41.1976 124.048 39.5537C123.446 37.8936 123.145 36.0625 123.145 34.0605C123.145 32.0423 123.454 30.195 124.072 28.5186C124.691 26.8421 125.578 25.4098 126.733 24.2217C127.889 23.0335 129.289 22.1221 130.933 21.4873C132.576 20.8363 134.391 20.5107 136.377 20.5107C138.395 20.5107 140.226 20.8363 141.87 21.4873C143.514 22.1383 144.922 23.0661 146.094 24.2705C147.266 25.4749 148.153 26.9072 148.755 28.5674C149.373 30.2275 149.683 32.0586 149.683 34.0605ZM142.993 34.0605C142.993 31.3424 142.391 29.2266 141.187 27.7129C139.998 26.1992 138.395 25.4424 136.377 25.4424C135.075 25.4424 133.927 25.7842 132.935 26.4678C131.942 27.1351 131.177 28.1279 130.64 29.4463C130.103 30.7646 129.834 32.3027 129.834 34.0605C129.834 35.8021 130.094 37.3239 130.615 38.626C131.152 39.9281 131.909 40.929 132.886 41.6289C133.879 42.3125 135.042 42.6543 136.377 42.6543C138.395 42.6543 139.998 41.8975 141.187 40.3838C142.391 38.8538 142.993 36.7461 142.993 34.0605Z" fill="white"/>
<g clip-path="url(#clip0)">
<path d="M131.02 18.0734L130.416 17.9661L130.303 19.0463L130.907 19.1536L131.02 18.0734Z" fill="#2D404E"/>
<path d="M130.662 18.0098L130.416 17.9661L130.303 19.0463L130.549 19.09L130.662 18.0098Z" fill="#253744"/>
<path d="M141.839 16.8987L141.053 24.419C141.053 24.419 143.16 23.9536 145.487 23.8718C147.814 23.7902 150.478 23.7899 150.978 23.0172C151.121 22.1165 150.687 18.4851 149.38 16.831L141.839 16.8987Z" fill="#2D404E"/>
<path opacity="0.5" d="M150.974 21.9234C150.854 20.4459 150.365 18.0774 149.38 16.831L141.839 16.8987L141.731 17.9276L148.793 17.4045C148.793 17.4045 150.33 19.4606 150.045 22.5507C150.964 22.3742 150.975 21.9586 150.974 21.9234Z" fill="#253744"/>
<path opacity="0.7" d="M149.376 22.4317C148.615 22.5033 144.802 22.4105 143.483 22.4928C142.468 22.5562 141.594 22.7018 141.223 22.7836L141.052 24.4188C141.052 24.4188 143.159 23.9534 145.486 23.8716C147.813 23.79 150.477 23.7897 150.977 23.017C151.014 22.7886 151.013 22.384 150.97 21.8811C150.538 22.2971 149.99 22.3738 149.376 22.4317Z" fill="#253744"/>
<path d="M142.419 11.342L125.225 10.3622L125.189 10.7078L141.838 16.8986L159.15 16.7463L159.187 16.4007L142.419 11.342Z" fill="#2D404E"/>
<path d="M131.082 19.7403C131.068 19.4932 130.903 19.1535 130.903 19.1535L130.606 19.0912L130.306 19.0474C130.306 19.0474 130.078 19.3173 130.013 19.5503C129.949 19.7834 129.226 25.2521 129.179 25.7988C129.132 26.3454 129.839 26.4334 129.839 26.4334C129.839 26.4334 130.537 26.5953 130.604 26.0522C130.671 25.509 131.097 19.9875 131.082 19.7403Z" fill="#F2B643"/>
<path d="M141.838 16.8986L141.053 24.4189C141.053 24.4189 139.118 23.2349 136.893 22.3437C134.667 21.4526 132.1 20.5223 131.777 19.6032C131.824 18.6853 132.987 15.338 134.586 14.2006L141.838 16.8986Z" fill="#253744"/>
<path d="M141.17 23.2982L141.053 24.4191C141.053 24.4191 143.16 23.9536 145.487 23.8719C147.814 23.7902 150.478 23.79 150.978 23.0173C151.013 22.7948 151.013 22.4056 150.974 21.9208C150.974 21.9208 151.011 22.4632 149.714 22.5988C148.417 22.7344 145.747 22.798 144.633 22.8369C143.519 22.8757 141.769 23.1247 141.17 23.2982Z" fill="#F2B643"/>
<path d="M159.187 16.4007L159.151 16.7464L141.797 17.2935L125.189 10.7079L125.225 10.3622L141.938 16.3537L159.187 16.4007Z" fill="#253744"/>
<path d="M130.704 18.1567C130.973 18.2046 131.207 18.1042 131.225 17.9324C131.242 17.7606 131.038 17.5825 130.769 17.5345C130.499 17.4866 130.266 17.587 130.248 17.7588C130.23 17.9306 130.434 18.1087 130.704 18.1567Z" fill="#F2B643"/>
<path opacity="0.5" d="M150.98 22.0049C150.982 22.0334 150.984 22.0625 150.986 22.0903C150.984 22.0625 150.982 22.0334 150.98 22.0049Z" fill="#253744"/>
<path opacity="0.5" d="M150.991 22.1852C150.992 22.2097 150.994 22.2349 150.995 22.2589C150.994 22.2349 150.992 22.2097 150.991 22.1852Z" fill="#253744"/>
<path opacity="0.5" d="M150.999 22.3528C151 22.374 151.001 22.3961 151.001 22.4167C151.001 22.3961 151 22.3741 150.999 22.3528Z" fill="#253744"/>
<path opacity="0.5" d="M151.003 22.5086C151.003 22.5266 151.003 22.5457 151.003 22.5632C151.003 22.5457 151.003 22.5266 151.003 22.5086Z" fill="#253744"/>
<path opacity="0.5" d="M150.672 23.284C150.654 23.2943 150.636 23.3043 150.616 23.3141C150.636 23.3043 150.654 23.2942 150.672 23.284Z" fill="#253744"/>
<path opacity="0.5" d="M150.999 22.7767C150.998 22.7904 150.998 22.8053 150.997 22.8186C150.998 22.8054 150.998 22.7904 150.999 22.7767Z" fill="#253744"/>
<path opacity="0.5" d="M150.772 23.2216C150.749 23.2375 150.726 23.253 150.701 23.268C150.726 23.253 150.749 23.2375 150.772 23.2216Z" fill="#253744"/>
<path opacity="0.5" d="M150.447 23.39C150.433 23.3958 150.418 23.4014 150.403 23.407C150.418 23.4015 150.433 23.3958 150.447 23.39Z" fill="#253744"/>
<path opacity="0.5" d="M150.579 23.3331C150.553 23.3454 150.527 23.3573 150.5 23.369C150.527 23.3573 150.553 23.3454 150.579 23.3331Z" fill="#253744"/>
<path opacity="0.5" d="M150.186 23.48C150.178 23.4824 150.169 23.4848 150.161 23.4872C150.169 23.4848 150.178 23.4824 150.186 23.48Z" fill="#253744"/>
<path opacity="0.5" d="M151.002 22.6486C151.002 22.6647 151.002 22.6819 151.002 22.6976C151.002 22.6819 151.002 22.6647 151.002 22.6486Z" fill="#253744"/>
<path opacity="0.5" d="M150.917 23.0943C150.9 23.1138 150.881 23.1329 150.861 23.1514C150.881 23.1329 150.9 23.1138 150.917 23.0943Z" fill="#253744"/>
<path opacity="0.5" d="M150.851 23.1598C150.833 23.1755 150.814 23.1907 150.794 23.2056C150.814 23.1907 150.833 23.1755 150.851 23.1598Z" fill="#253744"/>
<path opacity="0.5" d="M150.977 23.017C150.963 23.0385 150.947 23.0591 150.93 23.0794C150.947 23.0591 150.963 23.0386 150.977 23.017Z" fill="#253744"/>
<path opacity="0.5" d="M150.992 22.8925C150.991 22.9033 150.991 22.9153 150.99 22.9255C150.991 22.9153 150.991 22.9033 150.992 22.8925Z" fill="#253744"/>
<path d="M150.974 21.9207C150.974 21.9207 150.974 21.9219 150.974 21.9234C150.976 21.9512 150.978 21.9779 150.98 22.0049C150.978 21.9769 150.976 21.9496 150.974 21.9207Z" fill="#F2B643"/>
<path d="M150.404 23.4071C150.335 23.433 150.262 23.4572 150.185 23.4798C150.262 23.4572 150.335 23.433 150.404 23.4071Z" fill="#F2B643"/>
<path d="M150.5 23.369C150.483 23.3763 150.465 23.3832 150.448 23.3902C150.465 23.3831 150.483 23.3762 150.5 23.369Z" fill="#F2B643"/>
<path d="M150.703 23.2684C150.693 23.2744 150.683 23.2801 150.672 23.286C150.682 23.2802 150.693 23.2744 150.703 23.2684Z" fill="#F2B643"/>
<path d="M150.772 23.2235C150.78 23.2178 150.787 23.2118 150.795 23.2058C150.787 23.2118 150.78 23.2178 150.772 23.2235Z" fill="#F2B643"/>
<path d="M150.997 22.8185C150.996 22.8448 150.993 22.8684 150.991 22.8924C150.993 22.8684 150.996 22.8448 150.997 22.8185Z" fill="#F2B643"/>
<path d="M150.616 23.3139C150.603 23.3203 150.591 23.3268 150.578 23.3331C150.591 23.3268 150.604 23.3204 150.616 23.3139Z" fill="#F2B643"/>
<path d="M150.861 23.1513C150.858 23.1543 150.854 23.1571 150.851 23.1601C150.854 23.1571 150.858 23.1543 150.861 23.1513Z" fill="#F2B643"/>
<path d="M150.989 22.9253C150.986 22.9584 150.982 22.9891 150.977 23.0171C150.982 22.9891 150.986 22.9585 150.989 22.9253Z" fill="#F2B643"/>
<path d="M151.003 22.5632C151.004 22.5929 151.003 22.6205 151.003 22.6485C151.003 22.6205 151.004 22.5929 151.003 22.5632Z" fill="#F2B643"/>
<path d="M151.002 22.6976C151.002 22.7254 151 22.7507 150.999 22.7766C151 22.7507 151.002 22.7254 151.002 22.6976Z" fill="#F2B643"/>
<path d="M151.002 22.4168C151.003 22.4486 151.003 22.4784 151.003 22.5087C151.003 22.4784 151.003 22.4486 151.002 22.4168Z" fill="#F2B643"/>
<path d="M150.931 23.0796C150.926 23.0851 150.922 23.0905 150.917 23.0958C150.922 23.0905 150.926 23.085 150.931 23.0796Z" fill="#F2B643"/>
<path d="M150.986 22.0902C150.988 22.1228 150.99 22.1537 150.991 22.1852C150.99 22.1537 150.988 22.1228 150.986 22.0902Z" fill="#F2B643"/>
<path d="M150.996 22.2589C150.997 22.2912 150.998 22.3218 150.999 22.3528C150.998 22.3218 150.997 22.2912 150.996 22.2589Z" fill="#F2B643"/>
<path d="M150.851 23.1597C150.854 23.1568 150.857 23.1541 150.861 23.1513C150.881 23.1328 150.9 23.1137 150.917 23.0942C150.922 23.0893 150.926 23.0844 150.93 23.0795C150.947 23.0592 150.963 23.0386 150.977 23.0171C150.982 22.9891 150.986 22.9584 150.989 22.9253C150.99 22.9151 150.991 22.9031 150.992 22.8924C150.994 22.8684 150.996 22.8448 150.997 22.8185C150.998 22.8052 150.998 22.7904 150.999 22.7766C151 22.7507 151.001 22.7253 151.002 22.6975C151.002 22.6819 151.002 22.6647 151.003 22.6485C151.003 22.6205 151.004 22.593 151.003 22.5632C151.004 22.5457 151.003 22.5266 151.003 22.5085C151.002 22.4783 151.002 22.4484 151.001 22.4166C151.001 22.396 151 22.3739 150.999 22.3527C150.998 22.3217 150.997 22.2911 150.995 22.2588C150.994 22.2349 150.993 22.2096 150.991 22.1851C150.99 22.1537 150.988 22.1227 150.986 22.0902C150.984 22.0624 150.982 22.0333 150.979 22.0047C150.978 21.9777 150.976 21.951 150.973 21.9232C150.974 21.9584 150.963 22.374 150.044 22.5506C150.014 22.8742 149.965 23.2091 149.891 23.5543C149.986 23.5334 150.076 23.5108 150.161 23.4865C150.169 23.4842 150.177 23.482 150.185 23.4797C150.262 23.4571 150.335 23.4329 150.404 23.407C150.419 23.4015 150.433 23.3959 150.448 23.3901C150.465 23.3831 150.483 23.3761 150.5 23.3688C150.527 23.3573 150.553 23.3452 150.578 23.333C150.591 23.3267 150.604 23.3203 150.616 23.3139C150.635 23.304 150.654 23.294 150.672 23.2838C150.681 23.2784 150.691 23.2733 150.7 23.2678C150.725 23.2528 150.749 23.2373 150.771 23.2214C150.779 23.2162 150.786 23.2107 150.793 23.2053C150.813 23.1906 150.833 23.1753 150.851 23.1597Z" fill="#D89932"/>
<path d="M141.17 23.2981L141.053 24.419C141.053 24.419 139.118 23.235 136.893 22.3438C134.667 21.4527 132.101 20.5224 131.777 19.6033C131.789 19.3766 131.868 19.0015 132.006 18.5482C132.006 18.5482 131.859 19.0578 133.081 19.6412C134.302 20.2246 136.862 21.2183 137.928 21.6447C138.993 22.071 140.628 22.9218 141.17 23.2981Z" fill="#F2B643"/>
<path opacity="0.5" d="M141.169 23.298C140.819 23.0548 140.012 22.6134 139.198 22.2164L139.08 23.3384C140.248 23.9267 141.052 24.4188 141.052 24.4188L141.169 23.298Z" fill="#D89932"/>
<g opacity="0.7">
<path opacity="0.7" d="M131.726 13.1385L131.244 12.9465L131.522 12.6013L141.799 13.1347L141.818 13.4868L131.726 13.1385Z" fill="#253744"/>
</g>
<path d="M130.872 17.6686L130.634 17.6264L131.128 12.905L131.388 12.4883L141.356 13.0553L141.367 13.2666L131.536 12.7074L131.361 12.988L130.872 17.6686Z" fill="#F2B643"/>
<path d="M142.149 13.711C142.78 13.8233 143.313 13.7177 143.338 13.4751C143.364 13.2326 142.872 12.945 142.241 12.8327C141.609 12.7204 141.077 12.826 141.052 13.0686C141.026 13.3111 141.518 13.5987 142.149 13.711Z" fill="#253744"/>
<path d="M142.198 13.4634C142.817 13.5735 143.334 13.5225 143.352 13.3495C143.37 13.1764 142.883 12.9469 142.263 12.8367C141.644 12.7266 141.127 12.7776 141.109 12.9507C141.091 13.1237 141.578 13.3533 142.198 13.4634Z" fill="#586A73"/>
<path opacity="0.1" d="M143.45 15.2231L135.502 13.6095L142.189 15.9722L155.958 16.1662C155.958 16.1662 147.383 15.9114 143.45 15.2231Z" fill="#C6CBCB"/>
<path d="M131.013 18.1439C130.925 18.1708 130.818 18.177 130.704 18.1567C130.434 18.1087 130.23 17.9306 130.248 17.7588C130.263 17.6139 130.431 17.5197 130.645 17.5227C130.645 17.5227 130.43 17.5913 130.465 17.8023C130.518 18.1283 131.013 18.1439 131.013 18.1439Z" fill="#D89932"/>
<path d="M129.722 24.6116C129.792 23.8142 130.1 19.9608 130.238 19.6685C130.32 19.4961 130.441 19.2517 130.527 19.0797L130.307 19.0475C130.307 19.0475 130.079 19.3174 130.014 19.5504C129.949 19.7835 129.227 25.2523 129.18 25.799C129.133 26.3455 129.839 26.4336 129.839 26.4336C129.839 26.4336 130.102 26.494 130.321 26.4153C129.538 26.2222 129.658 25.3411 129.722 24.6116Z" fill="#D89932"/>
<path opacity="0.3" d="M130.594 24.8925C130.592 24.9174 130.535 24.9289 130.466 24.9181C130.398 24.9073 130.344 24.8783 130.346 24.8535L130.748 19.6912C130.75 19.6662 130.807 19.6548 130.875 19.6656C130.944 19.6764 130.997 19.7052 130.996 19.7302L130.594 24.8925Z" fill="white"/>
</g>
<defs>
<clipPath id="clip0">
<rect width="34.494" height="29.8197" fill="white" transform="matrix(0.984558 0.175058 -0.103924 0.994585 126.099 2.00003)"/>
</clipPath>
</defs>
</svg>
